<?xml version="1.0" encoding="UTF-8"?>
<!--Generator: Apple Native CoreSVG 175-->
<!DOCTYPE svg
PUBLIC "-//W3C//DTD SVG 1.1//EN"
       "http://www.w3.org/Graphics/SVG/1.1/DTD/svg11.dtd">
<svg version="1.1" xmlns="http://www.w3.org/2000/svg" xmlns:xlink="http://www.w3.org/1999/xlink" width="3300" height="2200">
 <!--glyph: "uni100440.medium", point size: 100.0, font version: "17.3d3e1", template writer version: "65.1"-->
 <g id="Notes">
  <rect height="2200" id="artboard" style="fill:white;opacity:1" width="3300" x="0" y="0"/>
  <line style="fill:none;stroke:black;opacity:1;stroke-width:0.5;" x1="263" x2="3036" y1="292" y2="292"/>
  <text style="stroke:none;fill:black;font-family:sans-serif;font-size:13;font-weight:bold;" transform="matrix(1 0 0 1 263 322)">Weight/Scale Variations</text>
  <text style="stroke:none;fill:black;font-family:sans-serif;font-size:13;text-anchor:middle;" transform="matrix(1 0 0 1 559.711 322)">Ultralight</text>
  <text style="stroke:none;fill:black;font-family:sans-serif;font-size:13;text-anchor:middle;" transform="matrix(1 0 0 1 856.422 322)">Thin</text>
  <text style="stroke:none;fill:black;font-family:sans-serif;font-size:13;text-anchor:middle;" transform="matrix(1 0 0 1 1153.13 322)">Light</text>
  <text style="stroke:none;fill:black;font-family:sans-serif;font-size:13;text-anchor:middle;" transform="matrix(1 0 0 1 1449.84 322)">Regular</text>
  <text style="stroke:none;fill:black;font-family:sans-serif;font-size:13;text-anchor:middle;" transform="matrix(1 0 0 1 1746.56 322)">Medium</text>
  <text style="stroke:none;fill:black;font-family:sans-serif;font-size:13;text-anchor:middle;" transform="matrix(1 0 0 1 2043.27 322)">Semibold</text>
  <text style="stroke:none;fill:black;font-family:sans-serif;font-size:13;text-anchor:middle;" transform="matrix(1 0 0 1 2339.98 322)">Bold</text>
  <text style="stroke:none;fill:black;font-family:sans-serif;font-size:13;text-anchor:middle;" transform="matrix(1 0 0 1 2636.69 322)">Heavy</text>
  <text style="stroke:none;fill:black;font-family:sans-serif;font-size:13;text-anchor:middle;" transform="matrix(1 0 0 1 2933.4 322)">Black</text>
  <line style="fill:none;stroke:black;opacity:1;stroke-width:0.5;" x1="263" x2="3036" y1="1903" y2="1903"/>
  <g transform="matrix(1 0 0 1 263 1933)">
   <path d="M9.24805 0.830078Q10.8691 0.830078 12.2949 0.214844Q13.7207-0.400391 14.8096-1.49414Q15.8984-2.58789 16.5186-4.01367Q17.1387-5.43945 17.1387-7.05078Q17.1387-8.66211 16.5186-10.0879Q15.8984-11.5137 14.8047-12.6074Q13.7109-13.7012 12.2852-14.3164Q10.8594-14.9316 9.23828-14.9316Q7.62695-14.9316 6.20117-14.3164Q4.77539-13.7012 3.69141-12.6074Q2.60742-11.5137 1.9873-10.0879Q1.36719-8.66211 1.36719-7.05078Q1.36719-5.43945 1.9873-4.01367Q2.60742-2.58789 3.69629-1.49414Q4.78516-0.400391 6.21094 0.214844Q7.63672 0.830078 9.24805 0.830078ZM9.24805-0.654297Q7.91992-0.654297 6.7627-1.14746Q5.60547-1.64062 4.73145-2.51953Q3.85742-3.39844 3.36426-4.56055Q2.87109-5.72266 2.87109-7.05078Q2.87109-8.37891 3.35938-9.54102Q3.84766-10.7031 4.72168-11.582Q5.5957-12.4609 6.75293-12.9541Q7.91016-13.4473 9.23828-13.4473Q10.5762-13.4473 11.7334-12.9541Q12.8906-12.4609 13.7695-11.582Q14.6484-10.7031 15.1465-9.54102Q15.6445-8.37891 15.6445-7.05078Q15.6445-5.72266 15.1514-4.56055Q14.6582-3.39844 13.7842-2.51953Q12.9102-1.64062 11.748-1.14746Q10.5859-0.654297 9.24805-0.654297ZM5.6543-7.05078Q5.6543-6.72852 5.85938-6.52832Q6.06445-6.32812 6.40625-6.32812L8.51562-6.32812L8.51562-4.20898Q8.51562-3.88672 8.71094-3.67676Q8.90625-3.4668 9.23828-3.4668Q9.56055-3.4668 9.77051-3.67676Q9.98047-3.88672 9.98047-4.20898L9.98047-6.32812L12.0898-6.32812Q12.4219-6.32812 12.627-6.52832Q12.832-6.72852 12.832-7.05078Q12.832-7.38281 12.627-7.58789Q12.4219-7.79297 12.0898-7.79297L9.98047-7.79297L9.98047-9.90234Q9.98047-10.2344 9.77051-10.4443Q9.56055-10.6543 9.23828-10.6543Q8.90625-10.6543 8.71094-10.4443Q8.51562-10.2344 8.51562-9.90234L8.51562-7.79297L6.40625-7.79297Q6.06445-7.79297 5.85938-7.58789Q5.6543-7.38281 5.6543-7.05078Z"/>
  </g>
  <g transform="matrix(1 0 0 1 281.867 1933)">
   <path d="M11.709 2.91016Q13.75 2.91016 15.5518 2.12891Q17.3535 1.34766 18.7305-0.0292969Q20.1074-1.40625 20.8887-3.20801Q21.6699-5.00977 21.6699-7.05078Q21.6699-9.0918 20.8887-10.8936Q20.1074-12.6953 18.7305-14.0723Q17.3535-15.4492 15.5469-16.2305Q13.7402-17.0117 11.6992-17.0117Q9.6582-17.0117 7.85645-16.2305Q6.05469-15.4492 4.68262-14.0723Q3.31055-12.6953 2.5293-10.8936Q1.74805-9.0918 1.74805-7.05078Q1.74805-5.00977 2.5293-3.20801Q3.31055-1.40625 4.6875-0.0292969Q6.06445 1.34766 7.86621 2.12891Q9.66797 2.91016 11.709 2.91016ZM11.709 1.25Q9.98047 1.25 8.47656 0.605469Q6.97266-0.0390625 5.83496-1.17676Q4.69727-2.31445 4.05762-3.81836Q3.41797-5.32227 3.41797-7.05078Q3.41797-8.7793 4.05762-10.2832Q4.69727-11.7871 5.83008-12.9297Q6.96289-14.0723 8.4668-14.7119Q9.9707-15.3516 11.6992-15.3516Q13.4277-15.3516 14.9316-14.7119Q16.4355-14.0723 17.5781-12.9297Q18.7207-11.7871 19.3652-10.2832Q20.0098-8.7793 20.0098-7.05078Q20.0098-5.32227 19.3701-3.81836Q18.7305-2.31445 17.5928-1.17676Q16.4551-0.0390625 14.9463 0.605469Q13.4375 1.25 11.709 1.25ZM7.17773-7.05078Q7.17773-6.69922 7.41211-6.47461Q7.64648-6.25 8.01758-6.25L10.8887-6.25L10.8887-3.36914Q10.8887-2.99805 11.1133-2.76855Q11.3379-2.53906 11.6895-2.53906Q12.0605-2.53906 12.29-2.76855Q12.5195-2.99805 12.5195-3.36914L12.5195-6.25L15.4004-6.25Q15.7715-6.25 16.001-6.47461Q16.2305-6.69922 16.2305-7.05078Q16.2305-7.42188 16.001-7.65137Q15.7715-7.88086 15.4004-7.88086L12.5195-7.88086L12.5195-10.752Q12.5195-11.1328 12.29-11.3623Q12.0605-11.5918 11.6895-11.5918Q11.3379-11.5918 11.1133-11.3574Q10.8887-11.123 10.8887-10.752L10.8887-7.88086L8.01758-7.88086Q7.63672-7.88086 7.40723-7.65137Q7.17773-7.42188 7.17773-7.05078Z"/>
  </g>
  <g transform="matrix(1 0 0 1 305.646 1933)">
   <path d="M14.9707 5.66406Q17.0605 5.66406 18.96 5.01465Q20.8594 4.36523 22.4512 3.19336Q24.043 2.02148 25.2197 0.429688Q26.3965-1.16211 27.0459-3.06641Q27.6953-4.9707 27.6953-7.05078Q27.6953-9.14062 27.0459-11.04Q26.3965-12.9395 25.2197-14.5312Q24.043-16.123 22.4512-17.2998Q20.8594-18.4766 18.9551-19.126Q17.0508-19.7754 14.9609-19.7754Q12.8711-19.7754 10.9717-19.126Q9.07227-18.4766 7.48535-17.2998Q5.89844-16.123 4.72168-14.5312Q3.54492-12.9395 2.90039-11.04Q2.25586-9.14062 2.25586-7.05078Q2.25586-4.9707 2.90527-3.06641Q3.55469-1.16211 4.72656 0.429688Q5.89844 2.02148 7.49023 3.19336Q9.08203 4.36523 10.9814 5.01465Q12.8809 5.66406 14.9707 5.66406ZM14.9707 3.84766Q13.1641 3.84766 11.5283 3.2959Q9.89258 2.74414 8.53516 1.74805Q7.17773 0.751953 6.17676-0.610352Q5.17578-1.97266 4.62891-3.6084Q4.08203-5.24414 4.08203-7.05078Q4.08203-8.86719 4.62891-10.5029Q5.17578-12.1387 6.17188-13.501Q7.16797-14.8633 8.52539-15.8594Q9.88281-16.8555 11.5186-17.4023Q13.1543-17.9492 14.9609-17.9492Q16.7773-17.9492 18.4131-17.4023Q20.0488-16.8555 21.4111-15.8594Q22.7734-14.8633 23.7695-13.501Q24.7656-12.1387 25.3174-10.5029Q25.8691-8.86719 25.8691-7.05078Q25.8789-5.24414 25.332-3.6084Q24.7852-1.97266 23.7842-0.610352Q22.7832 0.751953 21.4209 1.74805Q20.0586 2.74414 18.4229 3.2959Q16.7871 3.84766 14.9707 3.84766ZM9.19922-7.05078Q9.19922-6.66992 9.45801-6.4209Q9.7168-6.17188 10.1172-6.17188L14.0625-6.17188L14.0625-2.2168Q14.0625-1.81641 14.3115-1.55762Q14.5605-1.29883 14.9512-1.29883Q15.3516-1.29883 15.6104-1.55273Q15.8691-1.80664 15.8691-2.2168L15.8691-6.17188L19.8242-6.17188Q20.2246-6.17188 20.4785-6.4209Q20.7324-6.66992 20.7324-7.05078Q20.7324-7.46094 20.4785-7.71484Q20.2246-7.96875 19.8242-7.96875L15.8691-7.96875L15.8691-11.9141Q15.8691-12.3242 15.6104-12.583Q15.3516-12.8418 14.9512-12.8418Q14.5605-12.8418 14.3115-12.583Q14.0625-12.3242 14.0625-11.9141L14.0625-7.96875L10.1172-7.96875Q9.70703-7.96875 9.45312-7.71484Q9.19922-7.46094 9.19922-7.05078Z"/>
  </g>
  <text style="stroke:none;fill:black;font-family:sans-serif;font-size:13;font-weight:bold;" transform="matrix(1 0 0 1 263 1953)">Design Variations</text>
  <text style="stroke:none;fill:black;font-family:sans-serif;font-size:13;" transform="matrix(1 0 0 1 263 1971)">Symbols are supported in up to nine weights and three scales.</text>
  <text style="stroke:none;fill:black;font-family:sans-serif;font-size:13;" transform="matrix(1 0 0 1 263 1989)">For optimal layout with text and other symbols, vertically align</text>
  <text style="stroke:none;fill:black;font-family:sans-serif;font-size:13;" transform="matrix(1 0 0 1 263 2007)">symbols with the adjacent text.</text>
  <line style="fill:none;stroke:#00AEEF;stroke-width:0.5;opacity:1.0;" x1="776" x2="776" y1="1919" y2="1933"/>
  <g transform="matrix(1 0 0 1 776 1933)">
   <path d="M3.31055 0.15625Q3.70117 0.15625 3.91602-0.00976562Q4.13086-0.175781 4.26758-0.585938L5.52734-4.0332L11.2891-4.0332L12.5488-0.585938Q12.6855-0.175781 12.9004-0.00976562Q13.1152 0.15625 13.4961 0.15625Q13.8867 0.15625 14.1162-0.0585938Q14.3457-0.273438 14.3457-0.644531Q14.3457-0.869141 14.2383-1.17188L9.6582-13.3691Q9.48242-13.8184 9.17969-14.043Q8.87695-14.2676 8.4082-14.2676Q7.5-14.2676 7.17773-13.3789L2.59766-1.16211Q2.49023-0.859375 2.49023-0.634766Q2.49023-0.263672 2.70996-0.0537109Q2.92969 0.15625 3.31055 0.15625ZM6.00586-5.51758L8.37891-12.0898L8.42773-12.0898L10.8008-5.51758Z"/>
  </g>
  <line style="fill:none;stroke:#00AEEF;stroke-width:0.5;opacity:1.0;" x1="793.197" x2="793.197" y1="1919" y2="1933"/>
  <text style="stroke:none;fill:black;font-family:sans-serif;font-size:13;font-weight:bold;" transform="matrix(1 0 0 1 776 1953)">Margins</text>
  <text style="stroke:none;fill:black;font-family:sans-serif;font-size:13;" transform="matrix(1 0 0 1 776 1971)">Leading and trailing margins on the left and right side of each symbol</text>
  <text style="stroke:none;fill:black;font-family:sans-serif;font-size:13;" transform="matrix(1 0 0 1 776 1989)">can be adjusted by modifying the x-location of the margin guidelines.</text>
  <text style="stroke:none;fill:black;font-family:sans-serif;font-size:13;" transform="matrix(1 0 0 1 776 2007)">Modifications are automatically applied proportionally to all</text>
  <text style="stroke:none;fill:black;font-family:sans-serif;font-size:13;" transform="matrix(1 0 0 1 776 2025)">scales and weights.</text>
  <g transform="matrix(1 0 0 1 1289 1933)">
   <path d="M2.8418 1.86523L4.54102 3.57422Q5.18555 4.22852 5.90332 4.17969Q6.62109 4.13086 7.31445 3.35938L18.0078-8.42773L17.041-9.4043L6.42578 2.27539Q6.16211 2.57812 5.89355 2.61719Q5.625 2.65625 5.27344 2.30469L4.10156 1.14258Q3.75 0.791016 3.79395 0.522461Q3.83789 0.253906 4.14062-0.0195312L15.6152-10.8203L14.6387-11.7871L3.04688-0.898438Q2.30469-0.214844 2.25098 0.498047Q2.19727 1.21094 2.8418 1.86523ZM9.25781-16.3281Q8.94531-16.0254 8.90625-15.6348Q8.86719-15.2441 9.04297-14.9512Q9.21875-14.6777 9.55566-14.541Q9.89258-14.4043 10.3809-14.5215Q11.4746-14.7754 12.5977-14.7314Q13.7207-14.6875 14.7949-13.9844L14.209-12.5293Q13.9551-11.9043 14.0674-11.4404Q14.1797-10.9766 14.5801-10.5664L16.875-8.25195Q17.2363-7.88086 17.5781-7.82227Q17.9199-7.76367 18.3398-7.8418L19.4043-8.03711L20.0684-7.36328L20.0293-6.80664Q20-6.43555 20.1221-6.12305Q20.2441-5.81055 20.6055-5.44922L21.3672-4.70703Q21.7285-4.3457 22.1533-4.33105Q22.5781-4.31641 22.9297-4.66797L25.8398-7.58789Q26.1914-7.93945 26.1816-8.35449Q26.1719-8.76953 25.8105-9.13086L25.0391-9.89258Q24.6875-10.2539 24.3799-10.3857Q24.0723-10.5176 23.7109-10.4883L23.1348-10.4395L22.4902-11.0742L22.7344-12.1973Q22.832-12.6172 22.6953-12.9834Q22.5586-13.3496 22.1191-13.7891L19.9219-15.9766Q18.6719-17.2168 17.2607-17.8369Q15.8496-18.457 14.4189-18.4814Q12.9883-18.5059 11.665-17.959Q10.3418-17.4121 9.25781-16.3281ZM10.752-15.957Q11.6602-16.6211 12.7002-16.9043Q13.7402-17.1875 14.8047-17.085Q15.8691-16.9824 16.8701-16.5137Q17.8711-16.0449 18.7012-15.2051L21.1328-12.793Q21.3086-12.6172 21.3525-12.4512Q21.3965-12.2852 21.3379-12.0312L21.0156-10.5469L22.5195-9.0625L23.5059-9.12109Q23.6914-9.13086 23.7891-9.09668Q23.8867-9.0625 24.0332-8.91602L24.6094-8.33984L22.168-5.89844L21.5918-6.47461Q21.4453-6.62109 21.4062-6.71875Q21.3672-6.81641 21.377-7.01172L21.4453-7.98828L19.9512-9.47266L18.4277-9.21875Q18.1836-9.16992 18.042-9.2041Q17.9004-9.23828 17.7148-9.41406L15.7129-11.416Q15.5176-11.5918 15.4932-11.7529Q15.4688-11.9141 15.5859-12.1875L16.4648-14.2773Q15.293-15.3711 13.8281-15.791Q12.3633-16.2109 10.8398-15.7617Q10.7227-15.7324 10.6885-15.8057Q10.6543-15.8789 10.752-15.957Z"/>
  </g>
  <text style="stroke:none;fill:black;font-family:sans-serif;font-size:13;font-weight:bold;" transform="matrix(1 0 0 1 1289 1953)">Exporting</text>
  <text style="stroke:none;fill:black;font-family:sans-serif;font-size:13;" transform="matrix(1 0 0 1 1289 1971)">Symbols should be outlined when exporting to ensure the</text>
  <text style="stroke:none;fill:black;font-family:sans-serif;font-size:13;" transform="matrix(1 0 0 1 1289 1989)">design is preserved when submitting to Xcode.</text>
  <text id="template-version" style="stroke:none;fill:black;font-family:sans-serif;font-size:13;text-anchor:end;" transform="matrix(1 0 0 1 3036 1933)">Template v.3.0</text>
  <text style="stroke:none;fill:black;font-family:sans-serif;font-size:13;text-anchor:end;" transform="matrix(1 0 0 1 3036 1951)">Requires Xcode 13 or greater</text>
  <text id="descriptive-name" style="stroke:none;fill:black;font-family:sans-serif;font-size:13;text-anchor:end;" transform="matrix(1 0 0 1 3036 1969)">Generated from chart.pie</text>
  <text style="stroke:none;fill:black;font-family:sans-serif;font-size:13;text-anchor:end;" transform="matrix(1 0 0 1 3036 1987)">Typeset at 100 points</text>
  <text style="stroke:none;fill:black;font-family:sans-serif;font-size:13;" transform="matrix(1 0 0 1 263 726)">Small</text>
  <text style="stroke:none;fill:black;font-family:sans-serif;font-size:13;" transform="matrix(1 0 0 1 263 1156)">Medium</text>
  <text style="stroke:none;fill:black;font-family:sans-serif;font-size:13;" transform="matrix(1 0 0 1 263 1586)">Large</text>
 </g>
 <g id="Guides">
  <g id="H-reference" style="fill:#27AAE1;stroke:none;" transform="matrix(1 0 0 1 339 696)">
   <path d="M0.993347 0L3.6377 0L29.3282-67.1326L30.0301-67.1326L30.0301-70.459L28.1227-70.459ZM11.6882-24.4797L46.9818-24.4797L46.2311-26.7288L12.4382-26.7288ZM55.1193 0L57.7637 0L30.6381-70.459L29.4327-70.459L29.4327-67.1326Z"/>
  </g>
  <line id="Baseline-S" style="fill:none;stroke:#27AAE1;opacity:1;stroke-width:0.5;" x1="263" x2="3036" y1="696" y2="696"/>
  <line id="Capline-S" style="fill:none;stroke:#27AAE1;opacity:1;stroke-width:0.5;" x1="263" x2="3036" y1="625.541" y2="625.541"/>
  <g id="H-reference" style="fill:#27AAE1;stroke:none;" transform="matrix(1 0 0 1 339 1126)">
   <path d="M0.993347 0L3.6377 0L29.3282-67.1326L30.0301-67.1326L30.0301-70.459L28.1227-70.459ZM11.6882-24.4797L46.9818-24.4797L46.2311-26.7288L12.4382-26.7288ZM55.1193 0L57.7637 0L30.6381-70.459L29.4327-70.459L29.4327-67.1326Z"/>
  </g>
  <line id="Baseline-M" style="fill:none;stroke:#27AAE1;opacity:1;stroke-width:0.5;" x1="263" x2="3036" y1="1126" y2="1126"/>
  <line id="Capline-M" style="fill:none;stroke:#27AAE1;opacity:1;stroke-width:0.5;" x1="263" x2="3036" y1="1055.54" y2="1055.54"/>
  <g id="H-reference" style="fill:#27AAE1;stroke:none;" transform="matrix(1 0 0 1 339 1556)">
   <path d="M0.993347 0L3.6377 0L29.3282-67.1326L30.0301-67.1326L30.0301-70.459L28.1227-70.459ZM11.6882-24.4797L46.9818-24.4797L46.2311-26.7288L12.4382-26.7288ZM55.1193 0L57.7637 0L30.6381-70.459L29.4327-70.459L29.4327-67.1326Z"/>
  </g>
  <line id="Baseline-L" style="fill:none;stroke:#27AAE1;opacity:1;stroke-width:0.5;" x1="263" x2="3036" y1="1556" y2="1556"/>
  <line id="Capline-L" style="fill:none;stroke:#27AAE1;opacity:1;stroke-width:0.5;" x1="263" x2="3036" y1="1485.54" y2="1485.54"/>
  <line id="left-margin-Regular-M" style="fill:none;stroke:#00AEEF;stroke-width:0.5;opacity:1.0;" x1="1391.32" x2="1391.32" y1="1030.79" y2="1150.12"/>
  <line id="right-margin-Regular-M" style="fill:none;stroke:#00AEEF;stroke-width:0.5;opacity:1.0;" x1="1508.37" x2="1508.37" y1="1030.79" y2="1150.12"/>
 </g>
 <g id="Symbols">
  <g id="Black-L" transform="matrix(1 0 0 1 2854.19 1556)">
   <path d="M109.005 9.26171L120.741-1.56866L91.0935-30.4284L130.582-52.8745L122.674-66.389L84.8901-44.8867L84.8901-87.5078L69.3636-87.5078L69.3636-32.3947Q69.3636-30.3164 69.9761-29.1019Q70.5886-27.8874 71.7044-26.7728ZM79.1958 32.7257Q93.2356 32.7257 105.521 27.4304Q117.806 22.1351 127.174 12.7568Q136.542 3.3785 141.848-8.90689Q147.154-21.1923 147.154-35.2113Q147.154-49.2303 141.848-61.5157Q136.542-73.8011 127.164-83.1794Q117.786-92.5577 105.5-97.853Q93.2148-103.148 79.175-103.148Q65.156-103.148 52.87-97.853Q40.584-92.5577 31.2271-83.1794Q21.8702-73.8011 16.5645-61.5157Q11.2588-49.2303 11.2588-35.2113Q11.2588-21.1923 16.5645-8.90689Q21.8702 3.3785 31.2375 12.7568Q40.6048 22.1351 52.8908 27.4304Q65.1768 32.7257 79.1958 32.7257ZM79.1958 12.5781Q69.2944 12.5781 60.6258 8.86081Q51.9572 5.14347 45.4199-1.40422Q38.8827-7.95191 35.1647-16.6309Q31.4468-25.3099 31.4468-35.2113Q31.4468-45.1126 35.1543-53.7917Q38.8618-62.4707 45.3991-69.0184Q51.9364-75.5661 60.605-79.2834Q69.2736-83.0007 79.175-83.0007Q89.0971-83.0007 97.7658-79.2834Q106.434-75.5661 112.982-69.0184Q119.53-62.4707 123.257-53.7917Q126.985-45.1126 126.985-35.2113Q126.985-25.3099 123.268-16.6309Q119.551-7.95191 113.013-1.40422Q106.476 5.14347 97.797 8.86081Q89.1179 12.5781 79.1958 12.5781Z"/>
  </g>
  <g id="Heavy-L" transform="matrix(1 0 0 1 2558.42 1556)">
   <path d="M110.041 9.03499L120.424-0.551731L89.2441-31.03L129.701-54.0888L122.732-66.0398L83.7015-43.7924L83.7015-88.4448L69.9755-88.4448L69.9755-32.8872Q69.9755-31.0575 70.5147-29.9208Q71.0539-28.784 72.1058-27.7378ZM78.2532 31.7694Q92.0879 31.7694 104.203 26.5469Q116.317 21.3244 125.56 12.0666Q134.803 2.80877 140.04-9.30591Q145.278-21.4206 145.278-35.2251Q145.278-49.0296 140.04-61.1442Q134.803-73.2589 125.545-82.5167Q116.287-91.7745 104.172-96.997Q92.0577-102.22 78.2231-102.22Q64.4186-102.22 52.3011-96.997Q40.1836-91.7745 30.9588-82.5167Q21.7339-73.2589 16.4964-61.1442Q11.2588-49.0296 11.2588-35.2251Q11.2588-21.4206 16.4964-9.30591Q21.7339 2.80877 30.9738 12.0666Q40.2137 21.3244 52.3312 26.5469Q64.4487 31.7694 78.2532 31.7694ZM78.2532 14.0275Q68.0463 14.0275 59.1158 10.2032Q50.1852 6.37886 43.4474-0.374011Q36.7097-7.12688 32.8825-16.0725Q29.0554-25.0182 29.0554-35.2251Q29.0554-45.432 32.8675-54.3776Q36.6795-63.3233 43.4173-70.0761Q50.155-76.829 59.0856-80.6533Q68.0162-84.4776 78.2231-84.4776Q88.4601-84.4776 97.3907-80.6533Q106.321-76.829 113.074-70.0761Q119.827-63.3233 123.666-54.3776Q127.506-45.432 127.506-35.2251Q127.506-25.0182 123.681-16.0725Q119.857-7.12688 113.119-0.374011Q106.382 6.37886 97.436 10.2032Q88.4903 14.0275 78.2532 14.0275Z"/>
  </g>
  <g id="Bold-L" transform="matrix(1 0 0 1 2262.89 1556)">
   <path d="M111.168 8.73586L119.861 0.700925L86.8649-31.7082L128.632-55.565L122.824-65.5795L82.1443-42.3729L82.1443-89.5678L70.6467-89.5678L70.6467-33.4944Q70.6467-31.9347 71.1011-30.8903Q71.5556-29.8459 72.5306-28.8842ZM77.0704 30.5711Q90.6514 30.5711 102.551 25.4407Q114.451 20.3104 123.536 11.2061Q132.621 2.10182 137.771-9.79778Q142.92-21.6974 142.92-35.2405Q142.92-48.7836 137.771-60.6832Q132.621-72.5828 123.517-81.6871Q114.413-90.7914 102.513-95.9217Q90.6135-101.052 77.0325-101.052Q63.4894-101.052 51.5831-95.9217Q39.6768-90.7914 30.6171-81.6871Q21.5574-72.5828 16.4081-60.6832Q11.2588-48.7836 11.2588-35.2405Q11.2588-21.6974 16.4081-9.79778Q21.5574 2.10182 30.6361 11.2061Q39.7147 20.3104 51.621 25.4407Q63.5273 30.5711 77.0704 30.5711ZM77.0704 15.8254Q66.4869 15.8254 57.2298 11.8667Q47.9727 7.90805 40.9853 0.901554Q33.9978-6.10494 30.0325-15.381Q26.0671-24.657 26.0671-35.2405Q26.0671-45.824 30.0135-55.1Q33.9599-64.3761 40.9474-71.3826Q47.9348-78.389 57.1919-82.3477Q66.449-86.3064 77.0325-86.3064Q87.6539-86.3064 96.911-82.3477Q106.168-78.389 113.174-71.3826Q120.181-64.3761 124.159-55.1Q128.136-45.824 128.136-35.2405Q128.136-24.657 124.178-15.381Q120.219-6.10494 113.231 0.901554Q106.244 7.90805 96.9679 11.8667Q87.6918 15.8254 77.0704 15.8254Z"/>
  </g>
  <g id="Semibold-L" transform="matrix(1 0 0 1 1966.99 1556)">
   <path d="M111.944 8.52965L119.473 1.5645L85.2246-32.1758L127.896-56.5827L122.887-65.2622L81.0708-41.3942L81.0708-90.3421L71.1093-90.3421L71.1093-33.9129Q71.1093-32.5394 71.5054-31.5587Q71.9015-30.5779 72.8234-29.6746ZM76.2549 29.745Q89.6611 29.745 101.413 24.6782Q113.164 19.6113 122.141 10.6129Q131.117 1.61445 136.206-10.1369Q141.295-21.8882 141.295-35.2511Q141.295-48.6141 136.206-60.3654Q131.117-72.1167 122.119-81.1151Q113.121-90.1136 101.369-95.1804Q89.6179-100.247 76.2117-100.247Q62.8488-100.247 51.0881-95.1804Q39.3275-90.1136 30.3816-81.1151Q21.4357-72.1167 16.3472-60.3654Q11.2588-48.6141 11.2588-35.2511Q11.2588-21.8882 16.3472-10.1369Q21.4357 1.61445 30.4032 10.6129Q39.3707 19.6113 51.1313 24.6782Q62.892 29.745 76.2549 29.745ZM76.2549 17.0649Q65.4118 17.0649 55.9296 13.0136Q46.4474 8.96227 39.2879 1.78092Q32.1283-5.40043 28.0677-14.9042Q24.007-24.408 24.007-35.2511Q24.007-46.0943 28.046-55.598Q32.0851-65.1018 39.2446-72.2832Q46.4042-79.4645 55.8864-83.5158Q65.3686-87.5671 76.2117-87.5671Q87.098-87.5671 96.5802-83.5158Q106.062-79.4645 113.244-72.2832Q120.425-65.1018 124.498-55.598Q128.571-46.0943 128.571-35.2511Q128.571-24.408 124.52-14.9042Q120.468-5.40043 113.309 1.78092Q106.149 8.96227 96.6452 13.0136Q87.1413 17.0649 76.2549 17.0649Z"/>
  </g>
  <g id="Medium-L" transform="matrix(1 0 0 1 1670.9 1556)">
   <path d="M112.533 8.37328L119.178 2.2193L83.981-32.5304L127.337-57.3544L122.935-65.0217L80.2568-40.6522L80.2568-90.9291L71.4602-90.9291L71.4602-34.2303Q71.4602-32.9979 71.812-32.0655Q72.1638-31.133 73.0455-30.2739ZM75.6366 29.1186Q88.9102 29.1186 100.549 24.0999Q112.188 19.0813 121.083 10.1631Q129.977 1.24491 135.02-10.394Q140.062-22.0329 140.062-35.2592Q140.062-48.4855 135.02-60.1244Q129.977-71.7633 121.059-80.6815Q112.141-89.5996 100.502-94.6183Q88.8629-99.637 75.5893-99.637Q62.363-99.637 50.7128-94.6183Q39.0626-89.5996 30.203-80.6815Q21.3434-71.7633 16.3011-60.1244Q11.2588-48.4855 11.2588-35.2592Q11.2588-22.0329 16.3011-10.394Q21.3434 1.24491 30.2266 10.1631Q39.1099 19.0813 50.7601 24.0999Q62.4103 29.1186 75.6366 29.1186ZM75.6366 18.0047Q64.5966 18.0047 54.9438 13.8832Q45.2909 9.76162 38.0008 2.44769Q30.7107-4.86623 26.5778-14.5427Q22.445-24.2192 22.445-35.2592Q22.445-46.2992 26.5542-55.9757Q30.6634-65.6521 37.9535-72.9661Q45.2437-80.28 54.8965-84.4015Q64.5494-88.5231 75.5893-88.5231Q86.6766-88.5231 96.3295-84.4015Q105.982-80.28 113.296-72.9661Q120.61-65.6521 124.755-55.9757Q128.9-46.2992 128.9-35.2592Q128.9-24.2192 124.779-14.5427Q120.657-4.86623 113.367 2.44769Q106.077 9.76162 96.4005 13.8832Q86.7239 18.0047 75.6366 18.0047Z"/>
  </g>
  <g id="Regular-L" transform="matrix(1 0 0 1 1374.99 1556)">
   <path d="M113.302 8.16933L118.794 3.07338L82.3587-32.9928L126.608-58.3609L122.997-64.7079L79.1951-39.6843L79.1951-91.6949L71.9178-91.6949L71.9178-34.6442Q71.9178-33.596 72.2118-32.7265Q72.5058-31.857 73.3352-31.0555ZM74.8301 28.3016Q87.9308 28.3016 99.4232 23.3458Q110.916 18.3899 119.703 9.5764Q128.49 0.7629 133.472-10.7293Q138.454-22.2216 138.454-35.2697Q138.454-48.3178 133.472-59.8101Q128.49-71.3023 119.676-80.1158Q110.863-88.9293 99.3707-93.8852Q87.8782-98.841 74.7776-98.841Q61.7295-98.841 50.2233-93.8852Q38.7171-88.9293 29.9701-80.1158Q21.2231-71.3023 16.2409-59.8101Q11.2588-48.3178 11.2588-35.2697Q11.2588-22.2216 16.2409-10.7293Q21.2231 0.7629 29.9963 9.5764Q38.7696 18.3899 50.2758 23.3458Q61.782 28.3016 74.8301 28.3016ZM74.8301 19.2306Q63.5334 19.2306 53.6579 15.0174Q43.7824 10.8042 36.3221 3.3174Q28.8617-4.16946 24.6346-14.0712Q20.4075-23.9729 20.4075-35.2697Q20.4075-46.5665 24.6083-56.4682Q28.8092-66.3699 36.2695-73.8568Q43.7299-81.3437 53.6053-85.5568Q63.4808-89.77 74.7776-89.77Q86.1269-89.77 96.0023-85.5568Q105.878-81.3437 113.364-73.8568Q120.851-66.3699 125.091-56.4682Q129.33-46.5665 129.33-35.2697Q129.33-23.9729 125.117-14.0712Q120.904-4.16946 113.444 3.3174Q105.983 10.8042 96.0814 15.0174Q86.1794 19.2306 74.8301 19.2306Z"/>
  </g>
  <g id="Light-L" transform="matrix(1 0 0 1 1079.2 1556)">
   <path d="M113.073 7.84483L117.305 3.89394L80.1449-33.031L126.017-59.2007L123.188-64.2115L77.5729-38.2911L77.5729-92.2294L71.8222-92.2294L71.8222-35.0451Q71.8222-33.9394 72.0972-33.1081Q72.3721-32.2767 73.1633-31.5326ZM73.914 27.3855Q86.8428 27.3855 98.1635 22.506Q109.484 17.6264 118.147 8.94647Q126.81 0.266525 131.707-11.0539Q136.603-22.3742 136.603-35.2697Q136.603-48.1652 131.707-59.4856Q126.81-70.8059 118.131-79.4859Q109.451-88.1658 98.1302-93.0454Q86.8095-97.9249 73.8807-97.9249Q60.9852-97.9249 49.6413-93.0454Q38.2974-88.1658 29.6743-79.4859Q21.0512-70.8059 16.155-59.4856Q11.2588-48.1652 11.2588-35.2697Q11.2588-22.3742 16.155-11.0539Q21.0512 0.266525 29.6909 8.94647Q38.3307 17.6264 49.6746 22.506Q61.0185 27.3855 73.914 27.3855ZM73.914 20.4901Q62.3691 20.4901 52.255 16.1721Q42.141 11.8541 34.4993 4.19535Q26.8576-3.46337 22.516-13.5941Q18.1745-23.7248 18.1745-35.2697Q18.1745-46.8147 22.4994-56.9453Q26.8243-67.076 34.466-74.7348Q42.1077-82.3935 52.2217-86.7115Q62.3358-91.0295 73.8807-91.0295Q85.459-91.0295 95.573-86.7115Q105.687-82.3935 113.345-74.7348Q121.004-67.076 125.339-56.9453Q129.674-46.8147 129.674-35.2697Q129.674-23.7248 125.356-13.5941Q121.038-3.46337 113.396 4.19535Q105.754 11.8541 95.6233 16.1721Q85.4923 20.4901 73.914 20.4901Z"/>
  </g>
  <g id="Thin-L" transform="matrix(1 0 0 1 783.716 1556)">
   <path d="M112.77 7.41565L115.336 4.97919L77.217-33.0814L125.234-60.3114L123.44-63.555L75.4274-36.4484L75.4274-92.9364L71.6958-92.9364L71.6958-35.5752Q71.6958-34.3936 71.9456-33.6127Q72.1953-32.8318 72.936-32.1637ZM72.7024 26.1739Q85.4038 26.1739 96.4975 21.3953Q107.591 16.6166 116.09 8.11334Q124.589-0.389971 129.372-11.483Q134.155-22.5761 134.155-35.2697Q134.155-47.9633 129.372-59.0564Q124.589-70.1494 116.086-78.6527Q107.583-87.1561 96.4896-91.9347Q85.396-96.7133 72.6945-96.7133Q60.0009-96.7133 48.8716-91.9347Q37.7422-87.1561 29.283-78.6527Q20.8239-70.1494 16.0413-59.0564Q11.2588-47.9633 11.2588-35.2697Q11.2588-22.5761 16.0413-11.483Q20.8239-0.389971 29.287 8.11334Q37.7501 16.6166 48.8794 21.3953Q60.0088 26.1739 72.7024 26.1739ZM72.7024 22.1559Q60.8292 22.1559 50.3996 17.6992Q39.97 13.2426 32.0885 5.35652Q24.207-2.52952 19.7141-12.963Q15.2211-23.3965 15.2211-35.2697Q15.2211-47.1429 19.7101-57.5764Q24.1992-68.0099 32.0807-75.8959Q39.9622-83.782 50.3918-88.2386Q60.8213-92.6953 72.6945-92.6953Q84.5756-92.6953 95.0051-88.2386Q105.435-83.782 113.32-75.8959Q121.206-68.0099 125.667-57.5764Q130.128-47.1429 130.128-35.2697Q130.128-23.3965 125.671-12.963Q121.215-2.52952 113.333 5.35652Q105.452 13.2426 95.0175 17.6992Q84.5834 22.1559 72.7024 22.1559Z"/>
  </g>
  <g id="Ultralight-L" transform="matrix(1 0 0 1 487.631 1556)">
   <path d="M112.615 7.19582L114.328 5.53505L75.7173-33.1073L124.833-60.8803L123.57-63.2187L74.3285-35.5046L74.3285-93.2985L71.6311-93.2985L71.6311-35.8467Q71.6311-34.6263 71.8679-33.8712Q72.1047-33.1162 72.8196-32.4869ZM72.0818 25.5533Q84.6668 25.5533 95.6442 20.8264Q106.622 16.0995 115.036 7.68661Q123.451-0.726225 128.176-11.7029Q132.901-22.6795 132.901-35.2697Q132.901-47.8599 128.176-58.8365Q123.451-69.8132 115.039-78.226Q106.627-86.6389 95.6493-91.3658Q84.672-96.0927 72.087-96.0927Q59.4967-96.0927 48.4773-91.3658Q37.4579-86.6389 29.0827-78.226Q20.7074-69.8132 15.9831-58.8365Q11.2588-47.8599 11.2588-35.2697Q11.2588-22.6795 15.9831-11.7029Q20.7074-0.726225 29.0801 7.68661Q37.4527 16.0995 48.4721 20.8264Q59.4916 25.5533 72.0818 25.5533ZM72.0818 23.0092Q60.0405 23.0092 49.4493 18.4814Q38.8581 13.9537 30.8538 5.95126Q22.8494-2.05121 18.2789-12.6398Q13.7084-23.2284 13.7084-35.2697Q13.7084-47.311 18.2815-57.8996Q22.8546-68.4882 30.8589-76.4907Q38.8633-84.4931 49.4545-89.0208Q60.0456-93.5486 72.087-93.5486Q84.1231-93.5486 94.7143-89.0208Q105.305-84.4931 113.307-76.4907Q121.309-68.4882 125.835-57.8996Q130.361-47.311 130.361-35.2697Q130.361-23.2284 125.833-12.6398Q121.305-2.05121 113.301 5.95126Q105.297 13.9537 94.7072 18.4814Q84.1179 23.0092 72.0818 23.0092Z"/>
  </g>
  <g id="Black-M" transform="matrix(1 0 0 1 2871.36 1126)">
   <path d="M83.5293-0.609412L93.6141-9.91383L71.8634-30.9981L101.845-47.9699L95.017-59.6029L66.5697-43.4631L66.5697-74.9989L53.2-74.9989L53.2-32.6643Q53.2-30.8327 53.735-29.8301Q54.27-28.8276 55.1843-27.913ZM62.0422 18.116Q73.0725 18.116 82.714 13.9613Q92.3554 9.8066 99.7039 2.45537Q107.052-4.89586 111.21-14.5373Q115.367-24.1788 115.367-35.2035Q115.367-46.2283 111.21-55.8698Q107.052-65.5112 99.7012-72.8625Q92.3499-80.2137 82.7085-84.3684Q73.067-88.5231 62.0367-88.5231Q51.0119-88.5231 41.3706-84.3684Q31.7293-80.2137 24.3835-72.8625Q17.0376-65.5112 12.8801-55.8698Q8.72266-46.2283 8.72266-35.2035Q8.72266-24.1788 12.8801-14.5373Q17.0376-4.89586 24.3862 2.45537Q31.7348 9.8066 41.3761 13.9613Q51.0174 18.116 62.0422 18.116ZM62.0422 0.734151Q54.6002 0.734151 48.0771-2.0681Q41.554-4.87036 36.637-9.79007Q31.72-14.7098 28.9179-21.2357Q26.1158-27.7615 26.1158-35.2035Q26.1158-42.6456 28.9152-49.1714Q31.7145-55.6973 36.6315-60.617Q41.5485-65.5367 48.0716-68.339Q54.5947-71.1412 62.0367-71.1412Q69.4843-71.1412 76.0074-68.339Q82.5305-65.5367 87.4502-60.617Q92.3699-55.6973 95.1749-49.1714Q97.9799-42.6456 97.9799-35.2035Q97.9799-27.7615 95.1777-21.2357Q92.3754-14.7098 87.4585-9.79007Q82.5415-4.87036 76.0156-2.0681Q69.4897 0.734151 62.0422 0.734151Z"/>
  </g>
  <g id="Heavy-M" transform="matrix(1 0 0 1 2575.48 1126)">
   <path d="M84.5631-0.801108L93.4416-8.99542L70.2597-31.5826L101.038-49.0796L95.0561-59.3073L65.5574-42.5218L65.5574-75.8655L53.807-75.8655L53.807-33.1088Q53.807-31.5255 54.2721-30.5954Q54.7371-29.6654 55.5924-28.8124ZM61.2053 17.2657Q72.0509 17.2657 81.5413 13.1751Q91.0318 9.08448 98.2693 1.83873Q105.507-5.40703 109.606-14.8974Q113.704-24.3879 113.704-35.217Q113.704-46.0462 109.606-55.5366Q105.507-65.027 98.2611-72.2728Q91.0154-79.5185 81.5249-83.6091Q72.0345-87.6997 61.1889-87.6997Q50.3598-87.6997 40.8682-83.6091Q31.3767-79.5185 24.1484-72.2728Q16.9202-65.027 12.8214-55.5366Q8.72266-46.0462 8.72266-35.217Q8.72266-24.3879 12.8214-14.8974Q16.9202-5.40703 24.1566 1.83873Q31.3931 9.08448 40.8846 13.1751Q50.3762 17.2657 61.2053 17.2657ZM61.2053 2.03477Q53.4875 2.03477 46.7303-0.86238Q39.9731-3.75953 34.8769-8.86397Q29.7807-13.9684 26.8824-20.7338Q23.9841-27.4992 23.9841-35.217Q23.9841-42.9348 26.8742-49.7002Q29.7643-56.4656 34.8605-61.5701Q39.9567-66.6745 46.7139-69.5717Q53.4711-72.4688 61.1889-72.4688Q68.9232-72.4688 75.6804-69.5717Q82.4376-66.6745 87.542-61.5701Q92.6464-56.4656 95.5518-49.7002Q98.4571-42.9348 98.4571-35.217Q98.4571-27.4992 95.56-20.7338Q92.6628-13.9684 87.5666-8.86397Q82.4704-3.75953 75.705-0.86238Q68.9395 2.03477 61.2053 2.03477Z"/>
  </g>
  <g id="Bold-M" transform="matrix(1 0 0 1 2279.69 1126)">
   <path d="M85.7196-1.01555L93.2487-7.96804L68.4658-32.2365L100.135-50.3209L95.0997-58.9767L64.4249-41.4689L64.4249-76.8349L54.4861-76.8349L54.4861-33.606Q54.4861-32.3005 54.8729-31.4515Q55.2597-30.6025 56.049-29.8184ZM60.2692 16.3144Q70.9081 16.3144 80.2296 12.2955Q89.5511 8.27669 96.6645 1.14892Q103.778-5.97884 107.811-15.3003Q111.844-24.6218 111.844-35.2321Q111.844-45.8424 107.811-55.1639Q103.778-64.4854 96.6502-71.6131Q89.5225-78.7409 80.201-82.7597Q70.8795-86.7786 60.2406-86.7786Q49.6302-86.7786 40.3062-82.7597Q30.9821-78.7409 23.8855-71.6131Q16.789-64.4854 12.7558-55.1639Q8.72266-45.8424 8.72266-35.2321Q8.72266-24.6218 12.7558-15.3003Q16.789-5.97884 23.8998 1.14892Q31.0107 8.27669 40.3348 12.2955Q49.6588 16.3144 60.2692 16.3144ZM60.2692 3.4897Q52.2428 3.4897 45.2238 0.486393Q38.2047-2.51691 32.908-7.82799Q27.6112-13.1391 24.6053-20.1724Q21.5994-27.2058 21.5994-35.2321Q21.5994-43.2584 24.591-50.2918Q27.5826-57.3251 32.8794-62.6362Q38.1761-67.9473 45.1952-70.9506Q52.2142-73.9539 60.2406-73.9539Q68.2955-73.9539 75.3145-70.9506Q82.3336-67.9473 87.6446-62.6362Q92.9557-57.3251 95.9733-50.2918Q98.9909-43.2584 98.9909-35.2321Q98.9909-27.2058 95.9876-20.1724Q92.9843-13.1391 87.6876-7.82799Q82.3909-2.51691 75.3575 0.486393Q68.3241 3.4897 60.2692 3.4897Z"/>
  </g>
  <g id="Semibold-M" transform="matrix(1 0 0 1 1983.62 1126)">
   <path d="M86.5169-1.16338L93.1156-7.25977L67.2291-32.6873L99.5131-51.1766L95.1298-58.7488L63.6442-40.7431L63.6442-77.5033L54.9542-77.5033L54.9542-33.9488Q54.9542-32.8348 55.2871-32.0417Q55.62-31.2486 56.3638-30.512ZM59.6238 15.6586Q70.1202 15.6586 79.3253 11.6892Q88.5303 7.7198 95.5582 0.673376Q102.586-6.37304 106.574-15.578Q110.562-24.783 110.562-35.2425Q110.562-45.702 106.574-54.907Q102.586-64.1119 95.5397-71.1584Q88.4933-78.2048 79.2883-82.1742Q70.0832-86.1436 59.5868-86.1436Q49.1273-86.1436 39.9187-82.1742Q30.7102-78.2048 23.7043-71.1584Q16.6985-64.1119 12.7106-54.907Q8.72266-45.702 8.72266-35.2425Q8.72266-24.783 12.7106-15.578Q16.6985-6.37304 23.7228 0.673376Q30.7471 7.7198 39.9557 11.6892Q49.1643 15.6586 59.6238 15.6586ZM59.6238 4.49272Q51.3847 4.49272 44.1852 1.41623Q36.9856-1.66026 31.5506-7.11379Q26.1156-12.5673 23.0355-19.7854Q19.9555-27.0035 19.9555-35.2425Q19.9555-43.4815 23.0171-50.6996Q26.0786-57.9177 31.5136-63.3712Q36.9486-68.8247 44.1482-71.9012Q51.3477-74.9777 59.5868-74.9777Q67.8628-74.9777 75.0624-71.9012Q82.2619-68.8247 87.7154-63.3712Q93.1689-57.9177 96.2639-50.6996Q99.359-43.4815 99.359-35.2425Q99.359-27.0035 96.2825-19.7854Q93.206-12.5673 87.771-7.11379Q82.336-1.66026 75.1179 1.41623Q67.8998 4.49272 59.6238 4.49272Z"/>
  </g>
  <g id="Medium-M" transform="matrix(1 0 0 1 1687.4 1126)">
   <path d="M87.1214-1.27547L93.0148-6.72273L66.2914-33.0291L99.0413-51.8255L95.1527-58.5759L63.0523-40.1927L63.0523-78.01L55.3092-78.01L55.3092-34.2087Q55.3092-33.2399 55.6012-32.4892Q55.8932-31.7385 56.6025-31.0379ZM59.1344 15.1614Q69.5228 15.1614 78.6396 11.2295Q87.7563 7.29754 94.7193 0.312797Q101.682-6.67194 105.636-15.7886Q109.59-24.9053 109.59-35.2504Q109.59-45.5955 105.636-54.7121Q101.682-63.8288 94.6976-70.8135Q87.713-77.7983 78.5962-81.7302Q69.4795-85.6621 59.091-85.6621Q48.7459-85.6621 39.6249-81.7302Q30.5039-77.7983 23.5669-70.8135Q16.6298-63.8288 12.6762-54.7121Q8.72266-45.5955 8.72266-35.2504Q8.72266-24.9053 12.6762-15.7886Q16.6298-6.67194 23.5886 0.312797Q30.5473 7.29754 39.6683 11.2295Q48.7893 15.1614 59.1344 15.1614ZM59.1344 5.25325Q50.7341 5.25325 43.3976 2.12127Q36.0612-1.01071 30.5214-6.57225Q24.9816-12.1338 21.8453-19.4919Q18.709-26.8501 18.709-35.2504Q18.709-43.6507 21.8236-51.0088Q24.9382-58.3669 30.478-63.9285Q36.0178-69.49 43.3543-72.622Q50.6907-75.754 59.091-75.754Q67.5347-75.754 74.8711-72.622Q82.2076-69.49 87.7691-63.9285Q93.3305-58.3669 96.4843-51.0088Q99.638-43.6507 99.638-35.2504Q99.638-26.8501 96.506-19.4919Q93.374-12.1338 87.8342-6.57225Q82.2945-1.01071 74.9362 2.12127Q67.578 5.25325 59.1344 5.25325Z"/>
  </g>
  <g id="Regular-M" transform="matrix(1 0 0 1 1391.32 1126)">
   <path d="M87.91-1.42168L92.8832-6.02224L65.0683-33.4749L98.4259-52.6718L95.1824-58.3505L62.2801-39.4748L62.2801-78.671L55.7722-78.671L55.7722-34.5477Q55.7722-33.7683 56.0108-33.0729Q56.2495-32.3775 56.9138-31.7238ZM58.4961 14.5128Q68.7436 14.5128 77.7452 10.6298Q86.7468 6.74677 93.6251-0.157525Q100.503-7.06182 104.412-16.0633Q108.321-25.0648 108.321-35.2606Q108.321-45.4565 104.412-54.458Q100.503-63.4595 93.5993-70.3638Q86.6951-77.2681 77.6935-81.1511Q68.692-85.0341 58.4444-85.0341Q48.2485-85.0341 39.2417-81.1511Q30.2349-77.2681 23.3876-70.3638Q16.5403-63.4595 12.6315-54.458Q8.72266-45.4565 8.72266-35.2606Q8.72266-25.0648 12.6315-16.0633Q16.5403-7.06182 23.4135-0.157525Q30.2866 6.74677 39.2934 10.6298Q48.3002 14.5128 58.4961 14.5128ZM58.4961 6.24524Q49.8854 6.24524 42.3704 3.04089Q34.8554-0.163465 29.1789-5.8659Q23.5024-11.5683 20.2927-19.1092Q17.0831-26.65 17.0831-35.2606Q17.0831-43.8713 20.2669-51.4121Q23.4507-58.9529 29.1273-64.6554Q34.8038-70.3578 42.3188-73.5622Q49.8338-76.7665 58.4444-76.7665Q67.1067-76.7665 74.6217-73.5622Q82.1367-70.3578 87.8391-64.6554Q93.5414-58.9529 96.7717-51.4121Q100.002-43.8713 100.002-35.2606Q100.002-26.65 96.7976-19.1092Q93.5933-11.5683 87.9167-5.8659Q82.2402-0.163465 74.6993 3.04089Q67.1584 6.24524 58.4961 6.24524Z"/>
  </g>
  <g id="Light-M" transform="matrix(1 0 0 1 1095.44 1126)">
   <path d="M87.7047-1.71262L91.5484-5.28657L63.0835-33.5091L97.8955-53.4247L95.3535-57.9055L60.8258-38.2257L60.8258-79.1502L55.6865-79.1502L55.6865-34.907Q55.6865-34.0762 55.9081-33.415Q56.1296-32.7538 56.7597-32.1516ZM57.6747 13.6914Q67.7682 13.6914 76.6158 9.87685Q85.4634 6.06227 92.2305-0.722288Q98.9976-7.50684 102.83-16.3542Q106.662-25.2016 106.662-35.2606Q106.662-45.3197 102.83-54.1671Q98.9976-63.0144 92.2133-69.799Q85.429-76.5836 76.5814-80.3981Q67.7338-84.2127 57.6403-84.2127Q47.5813-84.2127 38.7199-80.3981Q29.8586-76.5836 23.1224-69.799Q16.3862-63.0144 12.5544-54.1671Q8.72266-45.3197 8.72266-35.2606Q8.72266-25.2016 12.5544-16.3542Q16.3862-7.50684 23.1396-0.722288Q29.893 6.06227 38.7544 9.87685Q47.6157 13.6914 57.6747 13.6914ZM57.6747 7.37448Q48.8416 7.37448 41.1127 4.07612Q33.3838 0.777759 27.5447-5.07877Q21.7056-10.9353 18.3933-18.6814Q15.081-26.4275 15.081-35.2606Q15.081-44.0938 18.3761-51.8399Q21.6712-59.586 27.5103-65.4425Q33.3494-71.299 41.0783-74.5974Q48.8072-77.8958 57.6403-77.8958Q66.5079-77.8958 74.2368-74.5974Q81.9657-71.299 87.822-65.4425Q93.6783-59.586 96.9941-51.8399Q100.31-44.0938 100.31-35.2606Q100.31-26.4275 97.0115-18.6814Q93.7131-10.9353 87.8741-5.07877Q82.035 0.777759 74.2886 4.07612Q66.5423 7.37448 57.6747 7.37448Z"/>
  </g>
  <g id="Thin-M" transform="matrix(1 0 0 1 799.828 1126)">
   <path d="M87.4332-2.0974L89.783-4.31359L60.4585-33.5544L97.1939-54.4205L95.5797-57.3169L58.9022-36.5736L58.9022-79.7841L55.5732-79.7841L55.5732-35.3823Q55.5732-34.4834 55.7721-33.8674Q55.9711-33.2515 56.5559-32.7174ZM56.5884 12.6051Q66.4781 12.6051 75.1221 8.88105Q83.7661 5.15696 90.3861-1.46923Q97.006-8.09543 100.736-16.739Q104.467-25.3826 104.467-35.2606Q104.467-45.1387 100.736-53.7823Q97.006-62.4259 90.3803-69.0521Q83.7545-75.6782 75.1105-79.4023Q66.4665-83.1264 56.5768-83.1264Q46.6988-83.1264 38.0298-79.4023Q29.3609-75.6782 22.7717-69.0521Q16.1824-62.4259 12.4526-53.7823Q8.72266-45.1387 8.72266-35.2606Q8.72266-25.3826 12.4526-16.739Q16.1824-8.09543 22.7775-1.46923Q29.3725 5.15696 38.0415 8.88105Q46.7104 12.6051 56.5884 12.6051ZM56.5884 8.86799Q47.461 8.86799 39.4492 5.4453Q31.4375 2.0226 25.3834-4.03773Q19.3293-10.0981 15.8812-18.1156Q12.4332-26.1332 12.4332-35.2606Q12.4332-44.3881 15.8754-52.4057Q19.3176-60.4232 25.3717-66.4836Q31.4259-72.5439 39.4376-75.9666Q47.4494-79.3893 56.5768-79.3893Q65.7159-79.3893 73.7277-75.9666Q81.7394-72.5439 87.7993-66.4836Q93.8592-60.4232 97.2882-52.4057Q100.717-44.3881 100.717-35.2606Q100.717-26.1332 97.2944-18.1156Q93.8717-10.0981 87.8176-4.03773Q81.7635 2.0226 73.7455 5.4453Q65.7275 8.86799 56.5884 8.86799Z"/>
  </g>
  <g id="Ultralight-M" transform="matrix(1 0 0 1 503.679 1126)">
   <path d="M87.2942-2.29449L88.8788-3.81523L59.1139-33.5775L96.8346-54.9306L95.6956-57.0154L57.917-35.7274L57.917-80.1087L55.5152-80.1087L55.5152-35.6257Q55.5152-34.692 55.7025-34.0992Q55.8899-33.5064 56.4515-33.0072ZM56.032 12.0487Q65.8173 12.0487 74.357 8.37101Q82.8968 4.69327 89.4414-1.85181Q95.986-8.39689 99.6642-16.9361Q103.342-25.4753 103.342-35.2606Q103.342-45.046 99.6642-53.5852Q95.986-62.1244 89.4414-68.6695Q82.8968-75.2146 74.3571-78.8923Q65.8174-82.57 56.0321-82.57Q46.2468-82.57 37.6764-78.8923Q29.106-75.2146 22.592-68.6695Q16.0781-62.1244 12.4004-53.5852Q8.72266-45.046 8.72266-35.2606Q8.72266-25.4753 12.4004-16.9361Q16.0781-8.39689 22.592-1.85181Q29.1059 4.69327 37.6763 8.37101Q46.2467 12.0487 56.032 12.0487ZM56.032 9.63296Q46.7539 9.63296 38.5972 6.14658Q30.4405 2.66021 24.2763-3.50451Q18.1121-9.66922 14.5945-17.8258Q11.0769-25.9825 11.0769-35.2606Q11.0769-44.5388 14.5946-52.6954Q18.1122-60.8521 24.2764-67.0168Q30.4406-73.1815 38.5973-76.6679Q46.7539-80.1542 56.0321-80.1542Q65.3102-80.1542 73.4669-76.6679Q81.6236-73.1815 87.7877-67.0168Q93.9519-60.8521 97.4388-52.6954Q100.926-44.5388 100.926-35.2606Q100.926-25.9825 97.4393-17.8258Q93.9529-9.66922 87.7887-3.50451Q81.6244 2.66021 73.4673 6.14658Q65.3102 9.63296 56.032 9.63296Z"/>
  </g>
  <g id="Black-S" transform="matrix(1 0 0 1 2884.57 696)">
   <path d="M65.1367-8.05664L73.3398-15.625L56.6895-31.7383L80.0293-44.9219L74.4629-54.3945L52.3926-41.8945L52.3926-66.1621L41.5039-66.1621L41.5039-33.1055Q41.5039-31.5918 41.9434-30.7861Q42.3828-29.9805 43.1152-29.248ZM48.8281 6.78711Q57.5195 6.78711 65.1123 3.51562Q72.7051 0.244141 78.4912-5.54199Q84.2773-11.3281 87.5488-18.9209Q90.8203-26.5137 90.8203-35.2051Q90.8203-43.8965 87.5488-51.4893Q84.2773-59.082 78.4912-64.8682Q72.7051-70.6543 65.1123-73.9258Q57.5195-77.1973 48.8281-77.1973Q40.1367-77.1973 32.5439-73.9258Q24.9512-70.6543 19.165-64.8682Q13.3789-59.082 10.1074-51.4893Q6.83594-43.8965 6.83594-35.2051Q6.83594-26.5137 10.1074-18.9209Q13.3789-11.3281 19.165-5.54199Q24.9512 0.244141 32.5439 3.51562Q40.1367 6.78711 48.8281 6.78711ZM48.8281-7.37305Q43.0664-7.37305 38.0127-9.5459Q32.959-11.7188 29.1504-15.5273Q25.3418-19.3359 23.1689-24.3896Q20.9961-29.4434 20.9961-35.2051Q20.9961-40.9668 23.1689-46.0205Q25.3418-51.0742 29.1504-54.8828Q32.959-58.6914 38.0127-60.8643Q43.0664-63.0371 48.8281-63.0371Q54.5898-63.0371 59.6436-60.8643Q64.6973-58.6914 68.5059-54.8828Q72.3145-51.0742 74.4873-46.0205Q76.6602-40.9668 76.6602-35.2051Q76.6602-29.4434 74.4873-24.3896Q72.3145-19.3359 68.5059-15.5273Q64.6973-11.7188 59.6436-9.5459Q54.5898-7.37305 48.8281-7.37305Z"/>
  </g>
  <g id="Heavy-S" transform="matrix(1 0 0 1 2588.47 696)">
   <path d="M66.0472-8.18341L73.3629-14.9335L55.5716-32.2338L79.407-45.7747L74.4744-54.1986L51.7126-41.2492L51.7126-66.8421L42.034-66.8421L42.034-33.4397Q42.034-32.145 42.4159-31.3969Q42.7977-30.6489 43.484-29.9626ZM48.2173 6.16479Q56.7704 6.16479 64.2537 2.9394Q71.737-0.285985 77.4425-5.99721Q83.1479-11.7084 86.3791-19.1917Q89.6102-26.675 89.6102-35.2166Q89.6102-43.7582 86.3791-51.2415Q83.1479-58.7248 77.4367-64.436Q71.7255-70.1472 64.2422-73.3726Q56.7589-76.598 48.2058-76.598Q39.6642-76.598 32.1809-73.3726Q24.6976-70.1472 18.9979-64.436Q13.2982-58.7248 10.0671-51.2415Q6.83594-43.7582 6.83594-35.2166Q6.83594-26.675 10.0671-19.1917Q13.2982-11.7084 19.0037-5.99721Q24.7092-0.285985 32.1924 2.9394Q39.6757 6.16479 48.2173 6.16479ZM48.2173-6.40499Q42.2482-6.40499 37.0216-8.64699Q31.795-10.889 27.8539-14.8359Q23.9128-18.7828 21.6708-24.0151Q19.4288-29.2474 19.4288-35.2166Q19.4288-41.1858 21.665-46.4181Q23.9012-51.6504 27.8424-55.5973Q31.7835-59.5442 37.0101-61.7862Q42.2366-64.0282 48.2058-64.0282Q54.1865-64.0282 59.4131-61.7862Q64.6396-59.5442 68.5865-55.5973Q72.5334-51.6504 74.7812-46.4181Q77.0289-41.1858 77.0289-35.2166Q77.0289-29.2474 74.7869-24.0151Q72.5449-18.7828 68.6038-14.8359Q64.6627-10.889 59.4304-8.64699Q54.198-6.40499 48.2173-6.40499Z"/>
  </g>
  <g id="Bold-S" transform="matrix(1 0 0 1 2292.43 696)">
   <path d="M67.0654-8.3252L73.3887-14.1602L54.3213-32.7881L78.7109-46.7285L74.4873-53.9795L50.9521-40.5273L50.9521-67.6025L42.627-67.6025L42.627-33.8135Q42.627-32.7637 42.9443-32.0801Q43.2617-31.3965 43.8965-30.7617ZM47.5342 5.46875Q55.9326 5.46875 63.2935 2.29492Q70.6543-0.878906 76.2695-6.50635Q81.8848-12.1338 85.0708-19.4946Q88.2568-26.8555 88.2568-35.2295Q88.2568-43.6035 85.0708-50.9644Q81.8848-58.3252 76.2573-63.9526Q70.6299-69.5801 63.269-72.7539Q55.9082-75.9277 47.5098-75.9277Q39.1357-75.9277 31.7749-72.7539Q24.4141-69.5801 18.811-63.9526Q13.208-58.3252 10.022-50.9644Q6.83594-43.6035 6.83594-35.2295Q6.83594-26.8555 10.022-19.4946Q13.208-12.1338 18.8232-6.50635Q24.4385-0.878906 31.7993 2.29492Q39.1602 5.46875 47.5342 5.46875ZM47.5342-5.32227Q41.333-5.32227 35.9131-7.6416Q30.4932-9.96094 26.4038-14.0625Q22.3145-18.1641 19.9951-23.5962Q17.6758-29.0283 17.6758-35.2295Q17.6758-41.4307 19.9829-46.8628Q22.29-52.2949 26.3794-56.3965Q30.4688-60.498 35.8887-62.8174Q41.3086-65.1367 47.5098-65.1367Q53.7354-65.1367 59.1553-62.8174Q64.5752-60.498 68.6768-56.3965Q72.7783-52.2949 75.1099-46.8628Q77.4414-41.4307 77.4414-35.2295Q77.4414-29.0283 75.1221-23.5962Q72.8027-18.1641 68.7134-14.0625Q64.624-9.96094 59.1919-7.6416Q53.7598-5.32227 47.5342-5.32227Z"/>
  </g>
  <g id="Semibold-S" transform="matrix(1 0 0 1 1996.19 696)">
   <path d="M67.7675-8.42295L73.4064-13.627L53.4593-33.1702L78.2311-47.3861L74.4962-53.8284L50.4278-40.0297L50.4278-68.1269L43.0357-68.1269L43.0357-34.0712Q43.0357-33.1902 43.3087-32.5511Q43.5816-31.9119 44.1809-31.3127ZM47.0632 4.98887Q55.355 4.98887 62.6314 1.85059Q69.9078-1.2877 75.4608-6.85737Q81.0139-12.4271 84.1688-19.7035Q87.3237-26.9799 87.3237-35.2384Q87.3237-43.4969 84.1688-50.7733Q81.0139-58.0497 75.4442-63.6194Q69.8745-69.1891 62.5981-72.3273Q55.3217-75.4656 47.0299-75.4656Q38.7714-75.4656 31.495-72.3273Q24.2186-69.1891 18.6822-63.6194Q13.1458-58.0497 9.99087-50.7733Q6.83594-43.4969 6.83594-35.2384Q6.83594-26.9799 9.99087-19.7035Q13.1458-12.4271 18.6988-6.85737Q24.2519-1.2877 31.5283 1.85059Q38.8047 4.98887 47.0632 4.98887ZM47.0632-4.57578Q40.7021-4.57578 35.1488-6.94844Q29.5956-9.32109 25.4041-13.5293Q21.2125-17.7375 18.8398-23.3074Q16.4672-28.8772 16.4672-35.2384Q16.4672-41.5995 18.8232-47.1694Q21.1792-52.7393 25.3708-56.9475Q29.5623-61.1557 35.1155-63.5283Q40.6688-65.901 47.0299-65.901Q53.4243-65.901 58.9775-63.5283Q64.5308-61.1557 68.739-56.9475Q72.9472-52.7393 75.3365-47.1694Q77.7258-41.5995 77.7258-35.2384Q77.7258-28.8772 75.3531-23.3074Q72.9805-17.7375 68.7889-13.5293Q64.5974-9.32109 59.0275-6.94844Q53.4576-4.57578 47.0632-4.57578Z"/>
  </g>
  <g id="Medium-S" transform="matrix(1 0 0 1 1699.83 696)">
   <path d="M68.2998-8.49707L73.4199-13.2227L52.8057-33.46L77.8672-47.8848L74.5029-53.7139L50.0303-39.6523L50.0303-68.5244L43.3457-68.5244L43.3457-34.2666Q43.3457-33.5137 43.585-32.9082Q43.8242-32.3027 44.3965-31.7305ZM46.7061 4.625Q54.917 4.625 62.1294 1.51367Q69.3418-1.59766 74.8477-7.12354Q80.3535-12.6494 83.4849-19.8618Q86.6162-27.0742 86.6162-35.2451Q86.6162-43.416 83.4849-50.6284Q80.3535-57.8408 74.8276-63.3667Q69.3018-68.8926 62.0894-72.0039Q54.877-75.1152 46.666-75.1152Q38.4951-75.1152 31.2827-72.0039Q24.0703-68.8926 18.5845-63.3667Q13.0986-57.8408 9.96729-50.6284Q6.83594-43.416 6.83594-35.2451Q6.83594-27.0742 9.96729-19.8618Q13.0986-12.6494 18.6045-7.12354Q24.1104-1.59766 31.3228 1.51367Q38.5352 4.625 46.7061 4.625ZM46.7061-4.00977Q40.2236-4.00977 34.5693-6.42285Q28.915-8.83594 24.646-13.125Q20.377-17.4141 17.9639-23.0884Q15.5508-28.7627 15.5508-35.2451Q15.5508-41.7275 17.9438-47.4019Q20.3369-53.0762 24.606-57.3652Q28.875-61.6543 34.5293-64.0674Q40.1836-66.4805 46.666-66.4805Q53.1885-66.4805 58.8428-64.0674Q64.4971-61.6543 68.7861-57.3652Q73.0752-53.0762 75.5083-47.4019Q77.9414-41.7275 77.9414-35.2451Q77.9414-28.7627 75.5283-23.0884Q73.1152-17.4141 68.8462-13.125Q64.5771-8.83594 58.9028-6.42285Q53.2285-4.00977 46.7061-4.00977Z"/>
  </g>
  <g id="Regular-S" transform="matrix(1 0 0 1 1403.58 696)">
   <path d="M68.9941-8.59375L73.4375-12.6953L51.9531-33.8379L77.3926-48.5352L74.5117-53.5645L49.5117-39.1602L49.5117-69.043L43.75-69.043L43.75-34.5215Q43.75-33.9355 43.9453-33.374Q44.1406-32.8125 44.6777-32.2754ZM46.2402 4.15039Q54.3457 4.15039 61.4746 1.07422Q68.6035-2.00195 74.0479-7.4707Q79.4922-12.9395 82.5928-20.0684Q85.6934-27.1973 85.6934-35.2539Q85.6934-43.3105 82.5928-50.4395Q79.4922-57.5684 74.0234-63.0371Q68.5547-68.5059 61.4258-71.582Q54.2969-74.6582 46.1914-74.6582Q38.1348-74.6582 31.0059-71.582Q23.877-68.5059 18.457-63.0371Q13.0371-57.5684 9.93652-50.4395Q6.83594-43.3105 6.83594-35.2539Q6.83594-27.1973 9.93652-20.0684Q13.0371-12.9395 18.4814-7.4707Q23.9258-2.00195 31.0547 1.07422Q38.1836 4.15039 46.2402 4.15039ZM46.2402-3.27148Q39.5996-3.27148 33.8135-5.7373Q28.0273-8.20312 23.6572-12.5977Q19.2871-16.9922 16.8213-22.8027Q14.3555-28.6133 14.3555-35.2539Q14.3555-41.8945 16.7969-47.7051Q19.2383-53.5156 23.6084-57.9102Q27.9785-62.3047 33.7646-64.7705Q39.5508-67.2363 46.1914-67.2363Q52.8809-67.2363 58.667-64.7705Q64.4531-62.3047 68.8477-57.9102Q73.2422-53.5156 75.7324-47.7051Q78.2227-41.8945 78.2227-35.2539Q78.2227-28.6133 75.7568-22.8027Q73.291-16.9922 68.9209-12.5977Q64.5508-8.20312 58.7402-5.7373Q52.9297-3.27148 46.2402-3.27148Z"/>
  </g>
  <g id="Light-S" transform="matrix(1 0 0 1 1107.6 696)">
   <path d="M68.8126-8.85111L72.2567-12.0445L50.1973-33.8682L76.9234-49.2012L74.663-53.1708L48.2251-38.0552L48.2251-69.4669L43.6742-69.4669L43.6742-34.8394Q43.6742-34.2079 43.8544-33.6767Q44.0346-33.1454 44.5414-32.6538ZM45.5137 3.42382Q53.4828 3.42382 60.4755 0.408173Q67.4683-2.60747 72.8142-7.9703Q78.1601-13.3331 81.1927-20.3257Q84.2252-27.3183 84.2252-35.2539Q84.2252-43.1895 81.1927-50.1821Q78.1601-57.1747 72.7974-62.5375Q67.4347-67.9003 60.442-70.916Q53.4492-73.9316 45.4801-73.9316Q37.5445-73.9316 30.5443-70.916Q23.5441-67.9003 18.2224-62.5375Q12.9008-57.1747 9.86837-50.1821Q6.83594-43.1895 6.83594-35.2539Q6.83594-27.3183 9.86837-20.3257Q12.9008-13.3331 18.2392-7.9703Q23.5776-2.60747 30.5779 0.408173Q37.5781 3.42382 45.5137 3.42382ZM45.5137-2.27254Q38.6762-2.27254 32.7009-4.82152Q26.7255-7.3705 22.2116-11.9013Q17.6977-16.4322 15.141-22.4243Q12.5844-28.4164 12.5844-35.2539Q12.5844-42.0914 15.1243-48.0835Q17.6641-54.0756 22.178-58.6065Q26.6919-63.1373 32.6673-65.6863Q38.6426-68.2353 45.4801-68.2353Q52.3511-68.2353 58.3265-65.6863Q64.3018-63.1373 68.8325-58.6065Q73.3632-54.0756 75.9291-48.0835Q78.495-42.0914 78.495-35.2539Q78.495-28.4164 75.946-22.4243Q73.3971-16.4322 68.8831-11.9013Q64.3692-7.3705 58.3769-4.82152Q52.3847-2.27254 45.5137-2.27254Z"/>
  </g>
  <g id="Thin-S" transform="matrix(1 0 0 1 811.863 696)">
   <path d="M68.5724-9.1915L70.6951-11.1838L47.8752-33.9082L76.3028-50.0821L74.8632-52.6501L46.5236-36.5937L46.5236-70.0276L43.574-70.0276L43.574-35.2598Q43.574-34.5681 43.7342-34.0769Q43.8943-33.5857 44.3611-33.1543ZM44.5527 2.46287Q52.3416 2.46287 59.1542-0.472727Q65.9668-3.40832 71.1825-8.63106Q76.3983-13.8538 79.3409-20.6661Q82.2835-27.4784 82.2835-35.2539Q82.2835-43.0294 79.3409-49.8417Q76.3983-56.654 71.1759-61.8768Q65.9534-67.0995 59.1408-70.0351Q52.3282-72.9707 44.5393-72.9707Q36.7638-72.9707 29.9338-70.0351Q23.1038-67.0995 17.9121-61.8768Q12.7205-56.654 9.77823-49.8417Q6.83594-43.0294 6.83594-35.2539Q6.83594-27.4784 9.77823-20.6661Q12.7205-13.8538 17.9188-8.63106Q23.1172-3.40832 29.9472-0.472727Q36.7772 2.46287 44.5527 2.46287ZM44.5527-0.951361Q37.4549-0.951361 31.2293-3.61033Q25.0037-6.26929 20.2996-10.9804Q15.5955-15.6915 12.9188-21.9238Q10.2421-28.1561 10.2421-35.2539Q10.2421-42.3517 12.9121-48.584Q15.5821-54.8163 20.2862-59.5274Q24.9904-64.2385 31.2159-66.8975Q37.4415-69.5565 44.5393-69.5565Q51.6505-69.5565 57.8761-66.8975Q64.1017-64.2385 68.8125-59.5274Q73.5233-54.8163 76.1893-48.584Q78.8553-42.3517 78.8553-35.2539Q78.8553-28.1561 76.1963-21.9238Q73.5373-15.6915 68.8332-10.9804Q64.129-6.26929 57.8965-3.61033Q51.6639-0.951361 44.5527-0.951361Z"/>
  </g>
  <g id="Ultralight-S" transform="matrix(1 0 0 1 515.649 696)">
   <path d="M68.4494-9.36584L69.8952-10.743L46.6858-33.9287L75.985-50.5333L74.9657-52.3834L45.652-35.8452L45.652-70.3148L43.5226-70.3148L43.5226-35.4752Q43.5226-34.7527 43.6726-34.2819Q43.8225-33.8112 44.2688-33.4106ZM44.0605 1.97067Q51.757 1.97067 58.4774-0.92392Q65.1978-3.81851 70.3468-8.9695Q75.4959-14.1205 78.3924-20.8405Q81.2889-27.5604 81.2889-35.2539Q81.2889-42.9474 78.3924-49.6674Q75.4959-56.3873 70.3453-61.5383Q65.1947-66.6893 58.4743-69.5839Q51.754-72.4785 44.0575-72.4785Q36.364-72.4785 29.6211-69.5839Q22.8783-66.6893 17.7532-61.5383Q12.6282-56.3873 9.73206-49.6674Q6.83594-42.9474 6.83594-35.2539Q6.83594-27.5604 9.73206-20.8405Q12.6282-14.1205 17.7547-8.9695Q22.8813-3.81851 29.6242-0.92392Q36.367 1.97067 44.0605 1.97067ZM44.0605-0.274658Q36.8294-0.274658 30.4756-2.98996Q24.1219-5.70526 19.3203-10.5087Q14.5187-15.3122 11.7805-21.6675Q9.04236-28.0228 9.04236-35.2539Q9.04236-42.485 11.779-48.8403Q14.5157-55.1956 19.3172-59.9991Q24.1188-64.8026 30.4726-67.5179Q36.8263-70.2332 44.0575-70.2332Q51.2917-70.2332 57.6454-67.5179Q63.9992-64.8026 68.8023-59.9991Q73.6053-55.1956 76.3226-48.8403Q79.0398-42.485 79.0398-35.2539Q79.0398-28.0228 76.3245-21.6675Q73.6092-15.3122 68.8076-10.5087Q64.006-5.70526 57.6504-2.98996Q51.2947-0.274658 44.0605-0.274658Z"/>
  </g>
 </g>
</svg>
